{
  "accessors": [
    {
      "bufferView": 2,
      "componentType": 5126,
      "count": 98,
      "max": [
        11.656136512756348,
        -11.774114608764648,
        -0.16099612414836884
      ],
      "min": [
        -2.9674336910247803,
        -15.723824501037598,
        -21.470338821411133
      ],
      "type": "VEC3"
    },
    {
      "bufferView": 2,
      "byteOffset": 1176,
      "componentType": 5126,
      "count": 98,
      "max": [
        0.9685011506080627,
        0.9994630813598633,
        0.8902559280395508
      ],
      "min": [
        -0.7420714497566223,
        -0.9998834133148193,
        -0.9821487069129944
      ],
      "type": "VEC3"
    },
    {
      "bufferView": 3,
      "componentType": 5126,
      "count": 98,
      "max": [
        0.8404120802879333,
        0.9933470487594604,
        0.9992685317993164,
        1.0
      ],
      "min": [
        -0.9974848031997681,
        -0.9974952340126038,
        -0.9997684359550476,
        1.0
      ],
      "type": "VEC4"
    },
    {
      "bufferView": 1,
      "componentType": 5126,
      "count": 98,
      "max": [
        0.9937283992767334,
        0.4802416265010834
      ],
      "min": [
        0.33469223976135254,
        0.0027126669883728027
      ],
      "type": "VEC2"
    },
    {
      "bufferView": 0,
      "componentType": 5125,
      "count": 300,
      "type": "SCALAR"
    },
    {
      "bufferView": 2,
      "byteOffset": 2352,
      "componentType": 5126,
      "count": 200,
      "max": [
        7.228369235992432,
        33.29038619995117,
        28.56639289855957
      ],
      "min": [
        -5.623521327972412,
        -11.618165016174316,
        -24.341726303100586
      ],
      "type": "VEC3"
    },
    {
      "bufferView": 2,
      "byteOffset": 4752,
      "componentType": 5126,
      "count": 200,
      "max": [
        0.8884772062301636,
        0.8906089663505554,
        0.9051060676574707
      ],
      "min": [
        -0.8781537413597107,
        -0.8803435564041138,
        -0.8818503022193909
      ],
      "type": "VEC3"
    },
    {
      "bufferView": 3,
      "byteOffset": 1568,
      "componentType": 5126,
      "count": 200,
      "max": [
        0.9891481995582581,
        0.9882179498672485,
        0.9933894276618958,
        1.0
      ],
      "min": [
        -0.9413797855377197,
        -0.9848284125328064,
        -0.9398565888404846,
        1.0
      ],
      "type": "VEC4"
    },
    {
      "bufferView": 1,
      "byteOffset": 784,
      "componentType": 5126,
      "count": 200,
      "max": [
        0.993455171585083,
        0.9972797632217407
      ],
      "min": [
        0.002711603185161948,
        0.002563411369919777
      ],
      "type": "VEC2"
    },
    {
      "bufferView": 0,
      "byteOffset": 1200,
      "componentType": 5125,
      "count": 504,
      "type": "SCALAR"
    },
    {
      "bufferView": 2,
      "byteOffset": 7152,
      "componentType": 5126,
      "count": 209,
      "max": [
        9.230422019958496,
        40.02394485473633,
        22.83677101135254
      ],
      "min": [
        -5.7742533683776855,
        33.646018981933594,
        -18.567108154296875
      ],
      "type": "VEC3"
    },
    {
      "bufferView": 2,
      "byteOffset": 9660,
      "componentType": 5126,
      "count": 209,
      "max": [
        0.9235994815826416,
        0.9994310140609741,
        0.942175030708313
      ],
      "min": [
        -0.9964378476142883,
        -0.9813777208328247,
        -0.8444012999534607
      ],
      "type": "VEC3"
    },
    {
      "bufferView": 3,
      "byteOffset": 4768,
      "componentType": 5126,
      "count": 209,
      "max": [
        0.9992364048957825,
        0.998674750328064,
        0.9998162984848022,
        1.0
      ],
      "min": [
        -0.9884339570999146,
        -0.996928334236145,
        -0.9952284693717957,
        -1.0
      ],
      "type": "VEC4"
    },
    {
      "bufferView": 1,
      "byteOffset": 2384,
      "componentType": 5126,
      "count": 209,
      "max": [
        0.9207637310028076,
        0.9681227803230286
      ],
      "min": [
        0.002566545270383358,
        0.05971863120794296
      ],
      "type": "VEC2"
    },
    {
      "bufferView": 0,
      "byteOffset": 3216,
      "componentType": 5125,
      "count": 678,
      "type": "SCALAR"
    },
    {
      "bufferView": 2,
      "byteOffset": 12168,
      "componentType": 5126,
      "count": 78,
      "max": [
        11.348482131958008,
        -12.145543098449707,
        21.803678512573242
      ],
      "min": [
        -3.229856014251709,
        -15.729963302612305,
        0.06039166450500488
      ],
      "type": "VEC3"
    },
    {
      "bufferView": 2,
      "byteOffset": 13104,
      "componentType": 5126,
      "count": 78,
      "max": [
        0.927226185798645,
        0.9299718737602234,
        0.8591593503952026
      ],
      "min": [
        -0.9709903001785278,
        -0.9543951153755188,
        -0.9008864164352417
      ],
      "type": "VEC3"
    },
    {
      "bufferView": 3,
      "byteOffset": 8112,
      "componentType": 5126,
      "count": 78,
      "max": [
        0.9966468811035156,
        0.9980205297470093,
        0.9082543253898621,
        1.0
      ],
      "min": [
        -0.9997912645339966,
        -0.9999036192893982,
        -0.6012778878211975,
        1.0
      ],
      "type": "VEC4"
    },
    {
      "bufferView": 1,
      "byteOffset": 4056,
      "componentType": 5126,
      "count": 78,
      "max": [
        0.9948895573616028,
        0.9809614419937134
      ],
      "min": [
        0.3888133764266968,
        0.1021864041686058
      ],
      "type": "VEC2"
    },
    {
      "bufferView": 0,
      "byteOffset": 5928,
      "componentType": 5125,
      "count": 222,
      "type": "SCALAR"
    },
    {
      "bufferView": 2,
      "byteOffset": 14040,
      "componentType": 5126,
      "count": 80,
      "max": [
        5.502143383026123,
        33.36499786376953,
        21.090166091918945
      ],
      "min": [
        -8.151067733764648,
        -11.264683723449707,
        15.517126083374023
      ],
      "type": "VEC3"
    },
    {
      "bufferView": 2,
      "byteOffset": 15000,
      "componentType": 5126,
      "count": 80,
      "max": [
        0.9450942873954773,
        0.7996100783348083,
        0.9802955389022827
      ],
      "min": [
        -0.9586381912231445,
        -0.9351557493209839,
        -0.9461399912834167
      ],
      "type": "VEC3"
    },
    {
      "bufferView": 3,
      "byteOffset": 9360,
      "componentType": 5126,
      "count": 80,
      "max": [
        0.9853308200836182,
        0.909163773059845,
        0.981814980506897,
        1.0
      ],
      "min": [
        -0.9830228090286255,
        -0.8343356251716614,
        -0.9879041910171509,
        1.0
      ],
      "type": "VEC4"
    },
    {
      "bufferView": 1,
      "byteOffset": 4680,
      "componentType": 5126,
      "count": 80,
      "max": [
        0.9916930198669434,
        0.6738326549530029
      ],
      "min": [
        0.0026575978845357895,
        0.002571048680692911
      ],
      "type": "VEC2"
    },
    {
      "bufferView": 0,
      "byteOffset": 6816,
      "componentType": 5125,
      "count": 330,
      "type": "SCALAR"
    },
    {
      "bufferView": 2,
      "byteOffset": 15960,
      "componentType": 5126,
      "count": 172,
      "max": [
        5.562207221984863,
        33.38119888305664,
        -11.392353057861328
      ],
      "min": [
        -8.033474922180176,
        -11.264683723449707,
        -16.902132034301758
      ],
      "type": "VEC3"
    },
    {
      "bufferView": 2,
      "byteOffset": 18024,
      "componentType": 5126,
      "count": 172,
      "max": [
        0.9312844276428223,
        0.8574643731117249,
        0.9999948740005493
      ],
      "min": [
        -0.973816990852356,
        -0.9474930167198181,
        -0.9853542447090149
      ],
      "type": "VEC3"
    },
    {
      "bufferView": 3,
      "byteOffset": 10640,
      "componentType": 5126,
      "count": 172,
      "max": [
        0.999492883682251,
        0.9999873042106628,
        0.9415424466133118,
        1.0
      ],
      "min": [
        -0.9998303651809692,
        -0.9107754230499268,
        -0.9819170236587524,
        1.0
      ],
      "type": "VEC4"
    },
    {
      "bufferView": 1,
      "byteOffset": 5320,
      "componentType": 5126,
      "count": 172,
      "max": [
        0.9096880555152893,
        0.9461142420768738
      ],
      "min": [
        0.0033319767098873854,
        0.0025690451730042696
      ],
      "type": "VEC2"
    },
    {
      "bufferView": 0,
      "byteOffset": 8136,
      "componentType": 5125,
      "count": 714,
      "type": "SCALAR"
    }
  ],
  "asset": {
    "extras": {
      "author": "brainchildpl (https://sketchfab.com/brainchildpl)",
      "license": "CC-BY-4.0 (http://creativecommons.org/licenses/by/4.0/)",
      "source": "https://sketchfab.com/3d-models/stone-ancient-window-door-frame-pbr-960dcf3a28224244bbb0cb63f15734a2",
      "title": "Stone Ancient Window / Door Frame (PBR)"
    },
    "generator": "Sketchfab-12.67.0",
    "version": "2.0"
  },
  "bufferViews": [
    {
      "buffer": 0,
      "byteLength": 10992,
      "name": "floatBufferViews",
      "target": 34963
    },
    {
      "buffer": 0,
      "byteLength": 6696,
      "byteOffset": 10992,
      "byteStride": 8,
      "name": "floatBufferViews",
      "target": 34962
    },
    {
      "buffer": 0,
      "byteLength": 20088,
      "byteOffset": 17688,
      "byteStride": 12,
      "name": "floatBufferViews",
      "target": 34962
    },
    {
      "buffer": 0,
      "byteLength": 13392,
      "byteOffset": 37776,
      "byteStride": 16,
      "name": "floatBufferViews",
      "target": 34962
    }
  ],
  "buffers": [
    {
      "byteLength": 51168,
      "uri": "scene.bin"
    }
  ],
  "images": [
    {
      "uri": "textures/Scene_-_Root_baseColor.png"
    },
    {
      "uri": "textures/Scene_-_Root_metallicRoughness.png"
    },
    {
      "uri": "textures/Scene_-_Root_normal.png"
    }
  ],
  "materials": [
    {
      "doubleSided": true,
      "name": "Scene_-_Root",
      "normalTexture": {
        "index": 2
      },
      "occlusionTexture": {
        "index": 1
      },
      "pbrMetallicRoughness": {
        "baseColorTexture": {
          "index": 0
        },
        "metallicFactor": 0.0,
        "metallicRoughnessTexture": {
          "index": 1
        }
      }
    }
  ],
  "meshes": [
    {
      "name": "stoneElements_03_lp__0",
      "primitives": [
        {
          "attributes": {
            "NORMAL": 1,
            "POSITION": 0,
            "TANGENT": 2,
            "TEXCOORD_0": 3
          },
          "indices": 4,
          "material": 0,
          "mode": 4
        }
      ]
    },
    {
      "name": "stoneElements_01_lp__0",
      "primitives": [
        {
          "attributes": {
            "NORMAL": 6,
            "POSITION": 5,
            "TANGENT": 7,
            "TEXCOORD_0": 8
          },
          "indices": 9,
          "material": 0,
          "mode": 4
        }
      ]
    },
    {
      "name": "stoneElements_02_lp__0",
      "primitives": [
        {
          "attributes": {
            "NORMAL": 11,
            "POSITION": 10,
            "TANGENT": 12,
            "TEXCOORD_0": 13
          },
          "indices": 14,
          "material": 0,
          "mode": 4
        }
      ]
    },
    {
      "name": "stoneElements_04_lp__0",
      "primitives": [
        {
          "attributes": {
            "NORMAL": 16,
            "POSITION": 15,
            "TANGENT": 17,
            "TEXCOORD_0": 18
          },
          "indices": 19,
          "material": 0,
          "mode": 4
        }
      ]
    },
    {
      "name": "stoneElements_06_lp__0",
      "primitives": [
        {
          "attributes": {
            "NORMAL": 21,
            "POSITION": 20,
            "TANGENT": 22,
            "TEXCOORD_0": 23
          },
          "indices": 24,
          "material": 0,
          "mode": 4
        }
      ]
    },
    {
      "name": "stoneElements_05_lp__0",
      "primitives": [
        {
          "attributes": {
            "NORMAL": 26,
            "POSITION": 25,
            "TANGENT": 27,
            "TEXCOORD_0": 28
          },
          "indices": 29,
          "material": 0,
          "mode": 4
        }
      ]
    }
  ],
  "nodes": [
    {
      "children": [
        1
      ],
      "matrix": [
        1.0,
        0.0,
        0.0,
        0.0,
        0.0,
        2.220446049250313e-16,
        -1.0,
        0.0,
        0.0,
        1.0,
        2.220446049250313e-16,
        0.0,
        0.0,
        0.0,
        0.0,
        1.0
      ],
      "name": "Sketchfab_model"
    },
    {
      "children": [
        2
      ],
      "matrix": [
        1.0,
        0.0,
        0.0,
        0.0,
        0.0,
        0.0,
        1.0,
        0.0,
        0.0,
        -1.0,
        0.0,
        0.0,
        0.0,
        0.0,
        0.0,
        1.0
      ],
      "name": "785c2daf21c541d1ad4efc357e7dcaf4.fbx"
    },
    {
      "children": [
        3,
        5,
        7,
        9,
        11,
        13
      ],
      "name": "RootNode"
    },
    {
      "children": [
        4
      ],
      "matrix": [
        1.0,
        0.0,
        0.0,
        0.0,
        0.0,
        1.0,
        0.0,
        0.0,
        0.0,
        0.0,
        1.0,
        0.0,
        0.0,
        15.706226348876953,
        0.0,
        1.0
      ],
      "name": "stoneElements_03_lp"
    },
    {
      "mesh": 0,
      "name": "stoneElements_03_lp__0"
    },
    {
      "children": [
        6
      ],
      "matrix": [
        1.0,
        0.0,
        0.0,
        0.0,
        0.0,
        1.0,
        0.0,
        0.0,
        0.0,
        0.0,
        1.0,
        0.0,
        0.0,
        15.706226348876953,
        0.0,
        1.0
      ],
      "name": "stoneElements_01_lp"
    },
    {
      "mesh": 1,
      "name": "stoneElements_01_lp__0"
    },
    {
      "children": [
        8
      ],
      "matrix": [
        1.0,
        0.0,
        0.0,
        0.0,
        0.0,
        1.0,
        0.0,
        0.0,
        0.0,
        0.0,
        1.0,
        0.0,
        0.0,
        15.706226348876953,
        0.0,
        1.0
      ],
      "name": "stoneElements_02_lp"
    },
    {
      "mesh": 2,
      "name": "stoneElements_02_lp__0"
    },
    {
      "children": [
        10
      ],
      "matrix": [
        1.0,
        0.0,
        0.0,
        0.0,
        0.0,
        1.0,
        0.0,
        0.0,
        0.0,
        0.0,
        1.0,
        0.0,
        0.0,
        15.706226348876953,
        0.0,
        1.0
      ],
      "name": "stoneElements_04_lp"
    },
    {
      "mesh": 3,
      "name": "stoneElements_04_lp__0"
    },
    {
      "children": [
        12
      ],
      "matrix": [
        1.0,
        0.0,
        0.0,
        0.0,
        0.0,
        1.0,
        0.0,
        0.0,
        0.0,
        0.0,
        1.0,
        0.0,
        0.0,
        15.706226348876953,
        0.0,
        1.0
      ],
      "name": "stoneElements_06_lp"
    },
    {
      "mesh": 4,
      "name": "stoneElements_06_lp__0"
    },
    {
      "children": [
        14
      ],
      "matrix": [
        1.0,
        0.0,
        0.0,
        0.0,
        0.0,
        1.0,
        0.0,
        0.0,
        0.0,
        0.0,
        1.0,
        0.0,
        0.0,
        15.706226348876953,
        0.0,
        1.0
      ],
      "name": "stoneElements_05_lp"
    },
    {
      "mesh": 5,
      "name": "stoneElements_05_lp__0"
    }
  ],
  "samplers": [
    {
      "magFilter": 9729,
      "minFilter": 9987,
      "wrapS": 10497,
      "wrapT": 10497
    }
  ],
  "scene": 0,
  "scenes": [
    {
      "name": "Sketchfab_Scene",
      "nodes": [
        0
      ]
    }
  ],
  "textures": [
    {
      "sampler": 0,
      "source": 0
    },
    {
      "sampler": 0,
      "source": 1
    },
    {
      "sampler": 0,
      "source": 2
    }
  ]
}
