{
  "accessors": [
    {
      "bufferView": 2,
      "componentType": 5126,
      "count": 65532,
      "max": [
        0.48484015464782715,
        -4.097796440124512,
        0.8164807558059692
      ],
      "min": [
        -1.2753918170928955,
        -5.029930591583252,
        -0.33303534984588623
      ],
      "type": "VEC3"
    },
    {
      "bufferView": 2,
      "byteOffset": 786384,
      "componentType": 5126,
      "count": 65532,
      "max": [
        0.9999868869781494,
        0.9999809861183167,
        0.9999883770942688
      ],
      "min": [
        -0.9998824596405029,
        -0.9999842047691345,
        -0.9999850988388062
      ],
      "type": "VEC3"
    },
    {
      "bufferView": 1,
      "componentType": 5126,
      "count": 65532,
      "max": [
        0.9921314120292664,
        0.994626522064209
      ],
      "min": [
        0.003512993920594454,
        0.003132324665784836
      ],
      "type": "VEC2"
    },
    {
      "bufferView": 0,
      "componentType": 5125,
      "count": 339591,
      "type": "SCALAR"
    },
    {
      "bufferView": 2,
      "byteOffset": 1572768,
      "componentType": 5126,
      "count": 65532,
      "max": [
        0.17603373527526855,
        -4.090732574462891,
        0.8152026534080505
      ],
      "min": [
        -1.3656374216079712,
        -5.02885627746582,
        -0.38978439569473267
      ],
      "type": "VEC3"
    },
    {
      "bufferView": 2,
      "byteOffset": 2359152,
      "componentType": 5126,
      "count": 65532,
      "max": [
        0.9999596476554871,
        0.9998944401741028,
        0.9999521374702454
      ],
      "min": [
        -0.999884843826294,
        -0.9999871850013733,
        -0.9998313188552856
      ],
      "type": "VEC3"
    },
    {
      "bufferView": 1,
      "byteOffset": 524256,
      "componentType": 5126,
      "count": 65532,
      "max": [
        0.9942909479141235,
        0.9990982413291931
      ],
      "min": [
        0.0034495943691581488,
        0.00493047758936882
      ],
      "type": "VEC2"
    },
    {
      "bufferView": 0,
      "byteOffset": 1358364,
      "componentType": 5125,
      "count": 330051,
      "type": "SCALAR"
    },
    {
      "bufferView": 2,
      "byteOffset": 3145536,
      "componentType": 5126,
      "count": 34823,
      "max": [
        0.1872439980506897,
        -4.080519676208496,
        0.5574482679367065
      ],
      "min": [
        -0.5228668451309204,
        -4.993061065673828,
        -0.2609686851501465
      ],
      "type": "VEC3"
    },
    {
      "bufferView": 2,
      "byteOffset": 3563412,
      "componentType": 5126,
      "count": 34823,
      "max": [
        0.9999728202819824,
        0.9998118281364441,
        0.9999883770942688
      ],
      "min": [
        -0.9999700784683228,
        -0.9999811053276062,
        -0.9999850988388062
      ],
      "type": "VEC3"
    },
    {
      "bufferView": 1,
      "byteOffset": 1048512,
      "componentType": 5126,
      "count": 34823,
      "max": [
        0.9964377880096436,
        0.995627760887146
      ],
      "min": [
        0.009601134806871414,
        0.003781459992751479
      ],
      "type": "VEC2"
    },
    {
      "bufferView": 0,
      "byteOffset": 2678568,
      "componentType": 5125,
      "count": 161637,
      "type": "SCALAR"
    }
  ],
  "asset": {
    "extras": {
      "author": "Panomedia (https://sketchfab.com/panomedia)",
      "license": "SKETCHFAB Editorial (https://sketchfab.com/licenses)",
      "source": "https://sketchfab.com/3d-models/soldier-2nd-world-war-90874251d66c461dbdae7951df75ae60",
      "title": "Soldier (2nd World War)"
    },
    "generator": "Sketchfab-12.65.0",
    "version": "2.0"
  },
  "bufferViews": [
    {
      "buffer": 0,
      "byteLength": 3325116,
      "name": "floatBufferViews",
      "target": 34963
    },
    {
      "buffer": 0,
      "byteLength": 1327096,
      "byteOffset": 3325116,
      "byteStride": 8,
      "name": "floatBufferViews",
      "target": 34962
    },
    {
      "buffer": 0,
      "byteLength": 3981288,
      "byteOffset": 4652212,
      "byteStride": 12,
      "name": "floatBufferViews",
      "target": 34962
    }
  ],
  "buffers": [
    {
      "byteLength": 8633500,
      "uri": "scene.bin"
    }
  ],
  "images": [
    {
      "uri": "textures/stratioti-ok_baseColor.jpeg"
    }
  ],
  "materials": [
    {
      "doubleSided": true,
      "name": "stratioti-ok",
      "pbrMetallicRoughness": {
        "baseColorTexture": {
          "index": 0
        },
        "metallicFactor": 0.0,
        "roughnessFactor": 0.9
      }
    }
  ],
  "meshes": [
    {
      "name": "Object_0",
      "primitives": [
        {
          "attributes": {
            "NORMAL": 1,
            "POSITION": 0,
            "TEXCOORD_0": 2
          },
          "indices": 3,
          "material": 0,
          "mode": 4
        }
      ]
    },
    {
      "name": "Object_1",
      "primitives": [
        {
          "attributes": {
            "NORMAL": 5,
            "POSITION": 4,
            "TEXCOORD_0": 6
          },
          "indices": 7,
          "material": 0,
          "mode": 4
        }
      ]
    },
    {
      "name": "Object_2",
      "primitives": [
        {
          "attributes": {
            "NORMAL": 9,
            "POSITION": 8,
            "TEXCOORD_0": 10
          },
          "indices": 11,
          "material": 0,
          "mode": 4
        }
      ]
    }
  ],
  "nodes": [
    {
      "children": [
        1
      ],
      "matrix": [
        -0.15647874772548676,
        0.9461617469787599,
        -0.283359110355377,
        0.0,
        0.0,
        -0.2868932485580442,
        -0.9579625725746156,
        0.0,
        -0.9876813292503357,
        -0.14990077912807465,
        0.04489269480109211,
        0.0,
        -0.32710984349250793,
        -0.6123008728027344,
        0.04878382384777055,
        1.0
      ],
      "name": "Sketchfab_model"
    },
    {
      "children": [
        2,
        3,
        4
      ],
      "name": "stratioti-ok.obj.cleaner.materialmerger.gles"
    },
    {
      "mesh": 0,
      "name": "Object_2"
    },
    {
      "mesh": 1,
      "name": "Object_3"
    },
    {
      "mesh": 2,
      "name": "Object_4"
    }
  ],
  "samplers": [
    {
      "magFilter": 9729,
      "minFilter": 9987,
      "wrapS": 10497,
      "wrapT": 10497
    }
  ],
  "scene": 0,
  "scenes": [
    {
      "name": "Sketchfab_Scene",
      "nodes": [
        0
      ]
    }
  ],
  "textures": [
    {
      "sampler": 0,
      "source": 0
    }
  ]
}
